<?xml version="1.0" encoding="UTF-8"?>
<svg id="texto" xmlns="http://www.w3.org/2000/svg" version="1.1" xmlns:xlink="http://www.w3.org/1999/xlink" viewBox="0 0 1015.8 175.4">
  <!-- Generator: Adobe Illustrator 29.2.1, SVG Export Plug-In . SVG Version: 2.1.0 Build 116)  -->
  <defs>
    <style>
      .st0 {
        fill: none;
      }

      .st1 {
        clip-path: url(#clippath);
      }

      .st2 {
        fill: #d76234;
      }
    </style>
    <symbol id="noas" viewBox="0 0 1013.2 171.7">
      <g>
        <path class="st2" d="M1013,67.9c-.5,34.2-28.1,66.4-62.4,59.9-18.7-3.5-28.2-22.8-26.2.7.2,11.9.9,26.4-.3,37.7-.4,5.5-2.2,5.8-7.4,5.2-7.4-.5-23.2-1.6-30.6-2.1-3.5-.5-4.7.2-6-1.4-4-12.7-.6-128.1-1-162.7,7.9-4.4,27.2-1.3,37.6-1.9,8.2-1,5.8,6.5,11.6,7,39.5-28.6,88.9,9.2,84.6,57.3v.2h0ZM967.3,64.1c0-6.9-2.5-15.3-6.1-20-6-8.7-17-11.3-25.5-5.3-15.3,11.2-15.1,41,.4,51.9,7.9,5.4,18.2,3.3,24.2-4.3,4.2-4.8,7.2-14.2,6.9-21.9v-.3h0Z"/>
        <path class="st2" d="M273.6,60.8c-.1,4.2,0,8.4.3,12.6.4,5.8,1.7,10.9.7,15.8-1.5,7.1-5.9,13.2-10,19-8.2,11.1-19.4,17.2-31.3,19.3-7.6,1.4-15.7,1.7-24.3,1.6C125.1,135.7,121.5-.9,203.9.2c15.3-.1,33.7-1.1,46.6,7.7,10.4,6.9,21.5,20.2,24.2,32.5,1,6.8-1.2,13.4-1.1,20.3v.2h0ZM232.9,64.1c0-6.9-2.5-15.3-6.1-20-6-8.7-17-11.3-25.5-5.3-15.3,11.2-15.1,41,.4,51.9,7.9,5.4,18.2,3.3,24.2-4.3,4.2-4.8,7.1-14.2,6.9-21.9v-.3h0Z"/>
        <path class="st2" d="M123.9,102.7c-16.4,26.7-47.6,33.6-73.2,16.1-3.3-1.2-5.6,0-9.4.8-8,.7-15-.7-23.3-1-5.3-.6-11.7-.1-16.4-2.3-1.6-1-1.4-2.5-1.4-4.9C.2,88-.3,21.6.3,6.4c1.1-3.3,5.3-2.5,9.8-2.8,4.3,0,8.5-.2,13.3-.3,6.8-.1,13.7,0,17.6.6,3.4.6,4.5,1.9,4.8,4.9,2.2,19.4-11.3,85.6,23.5,84.6,9.1-1.3,14.2-8.6,16.9-18.2,5.3-18.9,1.6-47.7,2-63.6,0-3.8.3-7.2,4.9-7.7,6.5-1.1,20.8-.5,28.8-.4,4.8.1,8.3-.1,10,1.2,1.8,1.4,2,4.8,2,7.3-.7,26.7,5.2,68.6-10,90.5v.2c0,0-.1,0-.1,0Z"/>
        <path class="st2" d="M714.2,102.7c-13.5,23.2-44.8,34.1-68,18.9-2.3-1.4-6.2-3.8-8.3-3.5-3.7,2-1.2,10.5-1.9,15.1,0,11,0,25.4,0,32,.6,5.2-3,6.6-7.8,6.3-11.2-.9-25-.9-36-3-5.5-13.1,0-145.6-1.6-161.3-1.4-7,30.5-3,36.5-3.7,2.9.1,6.7-.2,8.1,2.8,5.2,20.1-12.9,93.5,28.1,86.2,25.7-13.5,12.7-63.1,15.4-84,1-7.9,14.3-4.6,22.4-5.3,6.4.5,16.7-.7,21.1,1.5,1.9,1.5,2,4.9,2,7.4-.7,26.8,5.2,68.4-10,90.4v.2c0,0-.1,0-.1,0Z"/>
        <path class="st2" d="M823.1,64.5c-.5-16.7-11.4-32.4-26.3-28-6.9,1.7-13,10.4-14.7,18.3-2,7.4-1.7,13.3-1.7,20.7v35.8c.1,3-.2,5-3.6,5.5-6.2,1.4-24.1.6-33.1.5-9,.5-8.8-3.7-8.8-12,0-6.9-.2-13.3-.3-20.6,0-25.7,0-47.4,15.1-64.5,14.1-18.2,39.2-26.1,59.9-14.2,5,2.6,8.6,5.3,10.8,5.9.5.1.8.1,1.2,0,1.2-.5,1.6-3.5,3.3-5.5,1.8-2.1,4.7-2.4,7.3-2.2,3.5.2,7.5.5,11.7.8,5.4.4,11,.8,15.7,1.1,2.6.2,7.2.9,8.5,2.4.8.8.8,2.1.8,3.2,0,15.7,0,77.9,0,101.7,0,3.4-3.5,3.9-7.8,3.9-4.8,0-9.8.2-14.7.3-4.7-.2-20.8,1.1-22.7-2.6-1.2-14.2.2-35.8-.6-50.3v-.2h0Z"/>
        <path class="st2" d="M415.2,83.9c-6.9,25.3-28.3,46.2-55.4,45.1-13.9.2-28,.8-41-4.1-46.4-19.2-47.5-97.3-3.1-119.4,12.6-6.2,27.9-6.6,40.7-.7,3.6,1.5,8.3,5.2,11.2,5.4,4.1.4,4.1-5.2,7.9-6.1,8.4-1.8,23.8-.6,32.2-.7,3.5,0,6,.3,7.4,1.3,2.4,1.8,2,5.8,2.1,8.7-.5,20.2,2.1,52-1.9,70.4v.2s0,0,0,0Z"/>
        <path class="st2" d="M411.6,146.2c.7,1.2.9,3,.9,5.3,0,3.3.1,7.7,0,11,0,7.2-5.1,6.1-11.3,6.3-3.3,0-6.5,0-8.3-.6-2.7-.9-2.8-3-3-6.3,0-3.2,0-7.7,0-11,0-3.4.2-7.1,4.3-7.6,2.3-.4,5.8-.1,8.6,0,3,.4,7,.2,8.9,2.8h0c0,.1,0,.1,0,.1Z"/>
        <path class="st2" d="M552.4,91.9c-.2-2-1.4-3.1-3-3.2-6.5-.4-26.5-1.7-37.3-2.3-2.5,0-5.5-.4-7.5.4-2.2.8-3.7,3.3-5.9,4.6-2.1,1.2-4.5,1.8-6.9,2-3.7.3-8.3.2-10.8-2.9-2.3-3.5,1.2-7.5,4.3-9.1,9.7-4.9,22.1-4.2,32.1-8.1,19.5-6.5,38.5-24,30.4-45.8-2.4-4.9-6.3-9-10.1-12.8-5.7-5.5-12.1-9.8-19.7-11.9C507.8-.1,496.6,0,486.3.1c-27.4-1.8-50.3,13.6-58.6,35.6-1.5,2.9-1.6,8.4,2.5,8.4,5.9.4,24.4,1.4,34,2.1,3,0,6.4,1.1,8.7-1.2,4.8-5.9,9.2-9.3,17-9.6,6.6-.5,13,2.9,7.9,9.9-1.4,1.8-3.3,2.9-5.2,4-19.2,9.5-48.7,15.5-55.3,38-4,15.6,8.2,31.4,22.4,37,9.5,3.9,19.8,4.7,30,4.6,9.9,0,20.5-.3,29.8-3.4,11-3.4,20.9-11.8,27.1-21.8,2.3-3.7,5.2-7.4,5.8-11.8v-.2h0Z"/>
      </g>
    </symbol>
    <clipPath id="clippath">
      <rect class="st0" x=".9" y="2" width="1013.2" height="171.7"/>
    </clipPath>
  </defs>
  <g class="st1">
    <use width="1013.2" height="171.7" transform="translate(.6 173.3) scale(1 -1)" xlink:href="#noas"/>
  </g>
</svg>